<?xml version="1.0" encoding="UTF-8" standalone="no"?>
<!DOCTYPE svg PUBLIC "-//W3C//DTD SVG 1.1//EN" "http://www.w3.org/Graphics/SVG/1.1/DTD/svg11.dtd">
<svg version="1.1" xmlns="http://www.w3.org/2000/svg" xmlns:xlink="http://www.w3.org/1999/xlink" preserveAspectRatio="xMidYMid meet" viewBox="62.9561517242786 403.66247948848564 179.96899224806208 179.1937984496123" width="400" height="398.24"><defs><path d="M230.75 404.7L231.15 404.74L231.55 404.79L231.94 404.87L232.33 404.95L232.71 405.06L233.09 405.17L233.46 405.3L233.82 405.45L234.17 405.61L234.52 405.78L234.86 405.96L235.19 406.16L235.52 406.37L235.83 406.59L236.14 406.83L236.43 407.07L236.72 407.33L237 407.59L237.26 407.87L237.52 408.15L237.76 408.45L238 408.76L238.22 409.07L238.43 409.39L238.62 409.73L238.81 410.07L238.98 410.41L239.14 410.77L239.28 411.13L239.42 411.5L239.53 411.88L239.63 412.26L239.72 412.65L239.79 413.04L239.85 413.44L239.89 413.84L239.92 414.25L239.93 414.66L239.93 569.86L239.92 570.27L239.89 570.68L239.85 571.08L239.79 571.48L239.72 571.87L239.63 572.26L239.53 572.64L239.42 573.02L239.28 573.39L239.14 573.75L238.98 574.1L238.81 574.45L238.62 574.79L238.43 575.12L238.22 575.45L238 575.76L237.76 576.07L237.52 576.36L237.26 576.65L237 576.93L236.72 577.19L236.43 577.45L236.14 577.69L235.83 577.93L235.52 578.15L235.19 578.36L234.86 578.56L234.52 578.74L234.17 578.91L233.82 579.07L233.46 579.22L233.09 579.35L232.71 579.46L232.33 579.57L231.94 579.65L231.55 579.73L231.15 579.78L230.75 579.82L230.34 579.85L229.93 579.86L73.96 579.86L73.54 579.85L73.14 579.82L72.73 579.78L72.33 579.73L71.94 579.65L71.55 579.57L71.17 579.46L70.8 579.35L70.43 579.22L70.06 579.07L69.71 578.91L69.36 578.74L69.02 578.56L68.69 578.36L68.37 578.15L68.05 577.93L67.74 577.69L67.45 577.45L67.16 577.19L66.89 576.93L66.62 576.65L66.36 576.36L66.12 576.07L65.89 575.76L65.66 575.45L65.45 575.12L65.26 574.79L65.07 574.45L64.9 574.1L64.74 573.75L64.6 573.39L64.47 573.02L64.35 572.64L64.25 572.26L64.16 571.87L64.09 571.48L64.03 571.08L63.99 570.68L63.96 570.27L63.96 569.86L63.96 414.66L63.96 414.25L63.99 413.84L64.03 413.44L64.09 413.04L64.16 412.65L64.25 412.26L64.35 411.88L64.47 411.5L64.6 411.13L64.74 410.77L64.9 410.41L65.07 410.07L65.26 409.73L65.45 409.39L65.66 409.07L65.89 408.76L66.12 408.45L66.36 408.15L66.62 407.87L66.89 407.59L67.16 407.33L67.45 407.07L67.74 406.83L68.05 406.59L68.37 406.37L68.69 406.16L69.02 405.96L69.36 405.78L69.71 405.61L70.06 405.45L70.43 405.3L70.8 405.17L71.17 405.06L71.55 404.95L71.94 404.87L72.33 404.79L72.73 404.74L73.14 404.7L73.54 404.67L73.96 404.66L229.93 404.66L230.34 404.67L230.75 404.7ZM84.4 419.4L83.99 419.42L83.59 419.47L83.19 419.52L82.79 419.59L82.41 419.68L82.02 419.78L81.65 419.9L81.28 420.03L80.92 420.18L80.56 420.34L80.21 420.51L79.87 420.69L79.54 420.89L79.22 421.1L78.9 421.32L78.6 421.55L78.3 421.8L78.01 422.05L77.74 422.32L77.47 422.6L77.22 422.88L76.97 423.18L76.74 423.49L76.52 423.8L76.31 424.12L76.11 424.46L75.93 424.8L75.75 425.14L75.59 425.5L75.45 425.86L75.32 426.23L75.2 426.61L75.1 426.99L75.01 427.38L74.94 427.77L74.88 428.17L74.84 428.57L74.82 428.98L74.81 429.39L74.81 555.13L74.82 555.54L74.84 555.95L74.88 556.35L74.94 556.75L75.01 557.14L75.1 557.53L75.2 557.91L75.32 558.29L75.45 558.66L75.59 559.02L75.75 559.38L75.93 559.72L76.11 560.06L76.31 560.4L76.52 560.72L76.74 561.03L76.97 561.34L77.22 561.64L77.47 561.92L77.74 562.2L78.01 562.46L78.3 562.72L78.6 562.96L78.9 563.2L79.22 563.42L79.54 563.63L79.87 563.83L80.21 564.01L80.56 564.18L80.92 564.34L81.28 564.49L81.65 564.62L82.02 564.73L82.41 564.84L82.79 564.92L83.19 565L83.59 565.05L83.99 565.09L84.4 565.12L84.81 565.13L219.07 565.13L219.48 565.12L219.89 565.09L220.3 565.05L220.69 565L221.09 564.92L221.48 564.84L221.86 564.73L222.23 564.62L222.6 564.49L222.96 564.34L223.32 564.18L223.67 564.01L224.01 563.83L224.34 563.63L224.66 563.42L224.98 563.2L225.28 562.96L225.58 562.72L225.87 562.46L226.14 562.2L226.41 561.92L226.67 561.64L226.91 561.34L227.14 561.03L227.36 560.72L227.57 560.4L227.77 560.06L227.96 559.72L228.13 559.38L228.29 559.02L228.43 558.66L228.56 558.29L228.68 557.91L228.78 557.53L228.87 557.14L228.94 556.75L229 556.35L229.04 555.95L229.06 555.54L229.07 555.13L229.07 429.39L229.06 428.98L229.04 428.57L229 428.17L228.94 427.77L228.87 427.38L228.78 426.99L228.68 426.61L228.56 426.23L228.43 425.86L228.29 425.5L228.13 425.14L227.96 424.8L227.77 424.46L227.57 424.12L227.36 423.8L227.14 423.49L226.91 423.18L226.67 422.88L226.41 422.6L226.14 422.32L225.87 422.05L225.58 421.8L225.28 421.55L224.98 421.32L224.66 421.1L224.34 420.89L224.01 420.69L223.67 420.51L223.32 420.34L222.96 420.18L222.6 420.03L222.23 419.9L221.86 419.78L221.48 419.68L221.09 419.59L220.69 419.52L220.3 419.47L219.89 419.42L219.48 419.4L219.07 419.39L84.81 419.39L84.4 419.4ZM184.15 456.63L184.49 456.66L184.83 456.71L185.16 456.77L185.48 456.84L185.8 456.93L186.12 457.03L186.43 457.14L186.73 457.26L187.03 457.39L187.32 457.54L187.61 457.69L187.89 457.86L188.16 458.04L188.42 458.22L188.68 458.42L188.93 458.62L189.17 458.84L189.4 459.06L189.63 459.29L189.84 459.53L190.05 459.78L190.24 460.04L190.43 460.3L190.6 460.58L190.77 460.85L190.93 461.14L191.07 461.43L191.2 461.73L191.32 462.04L191.43 462.35L191.53 462.66L191.62 462.98L191.69 463.31L191.75 463.64L191.8 463.97L191.84 464.31L191.86 464.65L191.86 465L191.86 545.87L191.86 546.22L191.84 546.56L191.8 546.9L191.75 547.24L191.69 547.57L191.62 547.89L191.53 548.21L191.43 548.53L191.32 548.84L191.2 549.14L191.07 549.44L190.93 549.74L190.77 550.02L190.6 550.3L190.43 550.57L190.24 550.84L190.05 551.09L189.84 551.34L189.63 551.58L189.4 551.81L189.17 552.04L188.93 552.25L188.68 552.46L188.42 552.65L188.16 552.84L187.89 553.02L187.61 553.18L187.32 553.34L187.03 553.48L186.73 553.61L186.43 553.74L186.12 553.85L185.8 553.94L185.48 554.03L185.16 554.1L184.83 554.16L184.49 554.21L184.15 554.25L183.81 554.27L183.46 554.27L120.42 554.27L120.07 554.27L119.73 554.25L119.39 554.21L119.06 554.16L118.73 554.1L118.4 554.03L118.08 553.94L117.76 553.85L117.45 553.74L117.15 553.61L116.85 553.48L116.56 553.34L116.27 553.18L115.99 553.02L115.72 552.84L115.46 552.65L115.2 552.46L114.95 552.25L114.71 552.04L114.48 551.81L114.25 551.58L114.04 551.34L113.83 551.09L113.64 550.84L113.45 550.57L113.28 550.3L113.11 550.02L112.96 549.74L112.81 549.44L112.68 549.14L112.56 548.84L112.45 548.53L112.35 548.21L112.26 547.89L112.19 547.57L112.13 547.24L112.08 546.9L112.05 546.56L112.03 546.22L112.02 545.87L112.02 465L112.03 464.65L112.05 464.31L112.08 463.97L112.13 463.64L112.19 463.31L112.26 462.98L112.35 462.66L112.45 462.35L112.56 462.04L112.68 461.73L112.81 461.43L112.96 461.14L113.11 460.85L113.28 460.58L113.45 460.3L113.64 460.04L113.83 459.78L114.04 459.53L114.25 459.29L114.48 459.06L114.71 458.84L114.95 458.62L115.2 458.42L115.46 458.22L115.72 458.04L115.99 457.86L116.27 457.69L116.56 457.54L116.85 457.39L117.15 457.26L117.45 457.14L117.76 457.03L118.08 456.93L118.4 456.84L118.73 456.77L119.06 456.71L119.39 456.66L119.73 456.63L120.07 456.61L120.42 456.6L183.46 456.6L183.81 456.61L184.15 456.63ZM177.33 469.78L177.16 469.8L177 469.82L176.84 469.85L176.68 469.89L176.52 469.94L176.37 469.99L176.23 470.05L176.08 470.12L175.94 470.2L175.81 470.28L175.68 470.37L175.56 470.47L175.44 470.57L175.32 470.68L175.21 470.79L175.11 470.91L175.01 471.04L174.92 471.17L174.84 471.3L174.76 471.44L174.69 471.58L174.63 471.73L174.58 471.88L174.53 472.04L174.49 472.19L174.46 472.35L174.44 472.52L174.43 472.68L174.42 472.85L174.42 538.02L174.43 538.19L174.44 538.36L174.46 538.52L174.49 538.68L174.53 538.84L174.58 538.99L174.63 539.15L174.69 539.29L174.76 539.44L174.84 539.57L174.92 539.71L175.01 539.84L175.11 539.96L175.21 540.08L175.32 540.2L175.44 540.3L175.56 540.41L175.68 540.5L175.81 540.59L175.94 540.68L176.08 540.75L176.23 540.82L176.37 540.89L176.52 540.94L176.68 540.99L176.84 541.03L177 541.06L177.16 541.08L177.33 541.09L177.5 541.1L179.1 541.1L179.27 541.09L179.43 541.08L179.6 541.06L179.76 541.03L179.92 540.99L180.07 540.94L180.22 540.89L180.37 540.82L180.51 540.75L180.65 540.68L180.79 540.59L180.91 540.5L181.04 540.41L181.16 540.3L181.27 540.2L181.38 540.08L181.48 539.96L181.58 539.84L181.67 539.71L181.75 539.57L181.83 539.44L181.9 539.29L181.96 539.15L182.02 538.99L182.06 538.84L182.1 538.68L182.13 538.52L182.16 538.36L182.17 538.19L182.17 538.02L182.17 472.85L182.17 472.68L182.16 472.52L182.13 472.35L182.1 472.19L182.06 472.04L182.02 471.88L181.96 471.73L181.9 471.58L181.83 471.44L181.75 471.3L181.67 471.17L181.58 471.04L181.48 470.91L181.38 470.79L181.27 470.68L181.16 470.57L181.04 470.47L180.91 470.37L180.79 470.28L180.65 470.2L180.51 470.12L180.37 470.05L180.22 469.99L180.07 469.94L179.92 469.89L179.76 469.85L179.6 469.82L179.43 469.8L179.27 469.78L179.1 469.78L177.5 469.78L177.33 469.78ZM126.16 469.78L126 469.8L125.83 469.82L125.67 469.85L125.52 469.89L125.36 469.94L125.21 469.99L125.06 470.05L124.92 470.12L124.78 470.2L124.65 470.28L124.52 470.37L124.39 470.47L124.27 470.57L124.16 470.68L124.05 470.79L123.95 470.91L123.85 471.04L123.76 471.17L123.68 471.3L123.6 471.44L123.53 471.58L123.47 471.73L123.42 471.88L123.37 472.04L123.33 472.19L123.3 472.35L123.28 472.52L123.26 472.68L123.26 472.85L123.26 538.02L123.26 538.19L123.28 538.36L123.3 538.52L123.33 538.68L123.37 538.84L123.42 538.99L123.47 539.15L123.53 539.29L123.6 539.44L123.68 539.57L123.76 539.71L123.85 539.84L123.95 539.96L124.05 540.08L124.16 540.2L124.27 540.3L124.39 540.41L124.52 540.5L124.65 540.59L124.78 540.68L124.92 540.75L125.06 540.82L125.21 540.89L125.36 540.94L125.52 540.99L125.67 541.03L125.83 541.06L126 541.08L126.16 541.09L126.33 541.1L127.94 541.1L128.11 541.09L128.27 541.08L128.43 541.06L128.6 541.03L128.75 540.99L128.91 540.94L129.06 540.89L129.21 540.82L129.35 540.75L129.49 540.68L129.62 540.59L129.75 540.5L129.88 540.41L130 540.3L130.11 540.2L130.22 540.08L130.32 539.96L130.42 539.84L130.51 539.71L130.59 539.57L130.67 539.44L130.74 539.29L130.8 539.15L130.85 538.99L130.9 538.84L130.94 538.68L130.97 538.52L130.99 538.36L131.01 538.19L131.01 538.02L131.01 472.85L131.01 472.68L130.99 472.52L130.97 472.35L130.94 472.19L130.9 472.04L130.85 471.88L130.8 471.73L130.74 471.58L130.67 471.44L130.59 471.3L130.51 471.17L130.42 471.04L130.32 470.91L130.22 470.79L130.11 470.68L130 470.57L129.88 470.47L129.75 470.37L129.62 470.28L129.49 470.2L129.35 470.12L129.21 470.05L129.06 469.99L128.91 469.94L128.75 469.89L128.6 469.85L128.43 469.82L128.27 469.8L128.11 469.78L127.94 469.78L126.33 469.78L126.16 469.78ZM153.3 469.78L153.13 469.8L152.97 469.82L152.8 469.85L152.65 469.89L152.49 469.94L152.34 469.99L152.19 470.05L152.05 470.12L151.91 470.2L151.78 470.28L151.65 470.37L151.52 470.47L151.4 470.57L151.29 470.68L151.18 470.79L151.08 470.91L150.98 471.04L150.89 471.17L150.81 471.3L150.73 471.44L150.66 471.58L150.6 471.73L150.55 471.88L150.5 472.04L150.46 472.19L150.43 472.35L150.41 472.52L150.39 472.68L150.39 472.85L150.39 538.02L150.39 538.19L150.41 538.36L150.43 538.52L150.46 538.68L150.5 538.84L150.55 538.99L150.6 539.15L150.66 539.29L150.73 539.44L150.81 539.57L150.89 539.71L150.98 539.84L151.08 539.96L151.18 540.08L151.29 540.2L151.4 540.3L151.52 540.41L151.65 540.5L151.78 540.59L151.91 540.68L152.05 540.75L152.19 540.82L152.34 540.89L152.49 540.94L152.65 540.99L152.8 541.03L152.97 541.06L153.13 541.08L153.3 541.09L153.46 541.1L155.07 541.1L155.24 541.09L155.4 541.08L155.57 541.06L155.73 541.03L155.89 540.99L156.04 540.94L156.19 540.89L156.34 540.82L156.48 540.75L156.62 540.68L156.75 540.59L156.88 540.5L157.01 540.41L157.13 540.3L157.24 540.2L157.35 540.08L157.45 539.96L157.55 539.84L157.64 539.71L157.72 539.57L157.8 539.44L157.87 539.29L157.93 539.15L157.99 538.99L158.03 538.84L158.07 538.68L158.1 538.52L158.12 538.36L158.14 538.19L158.14 538.02L158.14 472.85L158.14 472.68L158.12 472.52L158.1 472.35L158.07 472.19L158.03 472.04L157.99 471.88L157.93 471.73L157.87 471.58L157.8 471.44L157.72 471.3L157.64 471.17L157.55 471.04L157.45 470.91L157.35 470.79L157.24 470.68L157.13 470.57L157.01 470.47L156.88 470.37L156.75 470.28L156.62 470.2L156.48 470.12L156.34 470.05L156.19 469.99L156.04 469.94L155.89 469.89L155.73 469.85L155.57 469.82L155.4 469.8L155.24 469.78L155.07 469.78L153.46 469.78L153.3 469.78ZM191.61 441.89L191.87 441.92L192.12 441.96L192.37 442L192.61 442.06L192.86 442.13L193.1 442.2L193.33 442.29L193.56 442.38L193.78 442.49L194 442.6L194.22 442.72L194.43 442.85L194.63 442.98L194.83 443.13L195.02 443.28L195.21 443.44L195.39 443.6L195.56 443.78L195.72 443.95L195.88 444.14L196.03 444.33L196.18 444.53L196.31 444.73L196.44 444.94L196.56 445.16L196.67 445.38L196.78 445.6L196.87 445.83L196.96 446.07L197.03 446.3L197.1 446.55L197.16 446.79L197.2 447.04L197.24 447.3L197.27 447.55L197.28 447.81L197.29 448.07L197.28 448.34L197.27 448.59L197.24 448.85L197.2 449.1L197.16 449.35L197.1 449.6L197.03 449.84L196.96 450.08L196.87 450.31L196.78 450.54L196.67 450.77L196.56 450.99L196.44 451.2L196.31 451.41L196.18 451.62L196.03 451.81L195.88 452.01L195.72 452.19L195.56 452.37L195.39 452.54L195.21 452.71L195.02 452.87L194.83 453.02L194.63 453.16L194.43 453.3L194.22 453.43L194 453.55L193.78 453.66L193.56 453.76L193.33 453.86L193.1 453.94L192.86 454.02L192.61 454.09L192.37 454.14L192.12 454.19L191.87 454.23L191.61 454.25L191.35 454.27L191.09 454.27L112.79 454.27L112.53 454.27L112.27 454.25L112.02 454.23L111.76 454.19L111.51 454.14L111.27 454.09L111.02 454.02L110.79 453.94L110.55 453.86L110.32 453.76L110.1 453.66L109.88 453.55L109.66 453.43L109.45 453.3L109.25 453.16L109.05 453.02L108.86 452.87L108.67 452.71L108.5 452.54L108.32 452.37L108.16 452.19L108 452.01L107.85 451.81L107.7 451.62L107.57 451.41L107.44 451.2L107.32 450.99L107.21 450.77L107.1 450.54L107.01 450.31L106.92 450.08L106.85 449.84L106.78 449.6L106.72 449.35L106.68 449.1L106.64 448.85L106.61 448.59L106.6 448.34L106.59 448.07L106.6 447.81L106.61 447.55L106.64 447.3L106.68 447.04L106.72 446.79L106.78 446.55L106.85 446.3L106.92 446.07L107.01 445.83L107.1 445.6L107.21 445.38L107.32 445.16L107.44 444.94L107.57 444.73L107.7 444.53L107.85 444.33L108 444.14L108.16 443.95L108.32 443.78L108.5 443.6L108.67 443.44L108.86 443.28L109.05 443.13L109.25 442.98L109.45 442.85L109.66 442.72L109.88 442.6L110.1 442.49L110.32 442.38L110.55 442.29L110.79 442.2L111.02 442.13L111.27 442.06L111.51 442L111.76 441.96L112.02 441.92L112.27 441.89L112.53 441.88L112.79 441.87L191.09 441.87L191.35 441.88L191.61 441.89ZM166.37 430.33L166.77 430.44L167.17 430.58L167.54 430.76L167.89 430.97L168.22 431.22L168.52 431.49L168.8 431.8L169.04 432.12L169.26 432.48L169.44 432.85L169.58 433.24L169.68 433.65L169.75 434.07L169.77 434.51L169.75 434.94L169.68 435.37L169.58 435.78L169.44 436.17L169.26 436.54L169.04 436.89L168.8 437.22L168.52 437.52L168.22 437.8L167.89 438.04L167.54 438.26L167.17 438.44L166.77 438.58L166.37 438.68L165.94 438.75L165.51 438.77L138.37 438.77L137.94 438.75L137.52 438.68L137.11 438.58L136.72 438.44L136.34 438.26L135.99 438.04L135.66 437.8L135.36 437.52L135.08 437.22L134.84 436.89L134.63 436.54L134.45 436.17L134.3 435.78L134.2 435.37L134.13 434.94L134.11 434.51L134.13 434.07L134.2 433.65L134.3 433.24L134.45 432.85L134.63 432.48L134.84 432.12L135.08 431.8L135.36 431.49L135.66 431.22L135.99 430.97L136.34 430.76L136.72 430.58L137.11 430.44L137.52 430.33L137.94 430.27L138.37 430.24L165.51 430.24L165.94 430.27L166.37 430.33Z" id="a2EUefAA08"></path></defs><g><g><use xlink:href="#a2EUefAA08" opacity="1" fill="#000000" fill-opacity="1"></use></g></g></svg>